<svg width="18" height="18" viewBox="0 0 18 18" fill="none" xmlns="http://www.w3.org/2000/svg">
<path d="M18 16V2C18 0.9 17.097 0 15.995 0H2.005C0.855 0 0 0.853 0 2V16C0 17.148 0.855 18 2.005 18H15.995C16.5257 17.9992 17.0344 17.7884 17.4101 17.4136C17.7858 17.0389 17.9979 16.5306 18 16ZM14.184 10.607C14.184 10.607 15.316 11.724 15.595 12.242C15.603 12.253 15.606 12.263 15.609 12.267C15.722 12.457 15.751 12.607 15.694 12.717C15.6 12.9 15.28 12.992 15.171 13H13.172C13.032 13 12.742 12.964 12.39 12.721C12.12 12.533 11.853 12.222 11.593 11.919C11.205 11.469 10.869 11.079 10.531 11.079C10.4881 11.0789 10.4455 11.086 10.405 11.1C10.148 11.182 9.822 11.547 9.822 12.522C9.822 12.827 9.582 13.001 9.412 13.001H8.496C8.184 13.001 6.559 12.892 5.12 11.373C3.354 9.513 1.768 5.782 1.754 5.749C1.654 5.508 1.861 5.377 2.086 5.377H4.106C4.377 5.377 4.464 5.541 4.526 5.688C4.596 5.855 4.86 6.529 5.292 7.287C5.995 8.52 6.428 9.022 6.773 9.022C6.83751 9.02164 6.90085 9.00477 6.957 8.973C7.408 8.724 7.324 7.116 7.304 6.784C7.304 6.721 7.303 6.065 7.073 5.75C6.907 5.522 6.626 5.435 6.456 5.402C6.52532 5.30648 6.61654 5.22898 6.722 5.176C7.031 5.022 7.588 5 8.142 5H8.45C9.051 5.008 9.207 5.047 9.424 5.102C9.863 5.207 9.872 5.492 9.833 6.462C9.822 6.738 9.81 7.051 9.81 7.418C9.81 7.497 9.807 7.584 9.807 7.674C9.793 8.17 9.777 8.731 10.127 8.961C10.1723 8.98934 10.2246 9.00457 10.278 9.005C10.4 9.005 10.765 9.005 11.754 7.308C12.189 6.559 12.524 5.675 12.547 5.609C12.5819 5.53764 12.6325 5.47509 12.695 5.426C12.7462 5.39939 12.8033 5.38599 12.861 5.387H15.236C15.496 5.387 15.672 5.426 15.705 5.525C15.762 5.684 15.694 6.169 14.609 7.635L14.126 8.275C13.142 9.563 13.142 9.629 14.184 10.607Z" fill="#BC8686"/>
</svg>
