<svg width="18" height="18" viewBox="0 0 18 18" fill="none" xmlns="http://www.w3.org/2000/svg">
<path d="M7.29688 6.64453L11.0156 8.75781L7.29688 10.8711V6.64453ZM17.5 1.875V15.625C17.5 16.6602 16.6602 17.5 15.625 17.5H1.875C0.839844 17.5 0 16.6602 0 15.625V1.875C0 0.839844 0.839844 0 1.875 0H15.625C16.6602 0 17.5 0.839844 17.5 1.875ZM15.8594 8.76172C15.8594 8.76172 15.8594 6.43359 15.5625 5.31641C15.3984 4.69922 14.918 4.21484 14.3047 4.05078C13.1992 3.75 8.75 3.75 8.75 3.75C8.75 3.75 4.30078 3.75 3.19531 4.05078C2.58203 4.21484 2.10156 4.69922 1.9375 5.31641C1.64062 6.42969 1.64062 8.76172 1.64062 8.76172C1.64062 8.76172 1.64062 11.0898 1.9375 12.207C2.10156 12.8242 2.58203 13.2891 3.19531 13.4531C4.30078 13.75 8.75 13.75 8.75 13.75C8.75 13.75 13.1992 13.75 14.3047 13.4492C14.918 13.2852 15.3984 12.8203 15.5625 12.2031C15.8594 11.0898 15.8594 8.76172 15.8594 8.76172Z" fill="#BC8686"/>
</svg>
